<svg width="20" height="20" viewBox="0 0 20 20" fill="none" xmlns="http://www.w3.org/2000/svg">
<path fill-rule="evenodd" clip-rule="evenodd" d="M6 1.25C5.80109 1.25 5.61033 1.32902 5.46967 1.46967L0.469674 6.46967C0.197216 6.74213 0.175541 7.17671 0.419536 7.47493L9.41954 18.4749C9.56198 18.649 9.77505 18.75 10 18.75C10.225 18.75 10.438 18.649 10.5805 18.4749L19.5805 7.47493C19.8245 7.17671 19.8028 6.74213 19.5303 6.46967L14.5303 1.46967C14.3897 1.32902 14.1989 1.25 14 1.25H6ZM15.4249 6.93488C13.4429 6.60076 12.8086 5.04346 12.5991 4.06943C12.5764 3.97316 12.4519 3.97883 12.4349 4.0751C12.1008 6.05712 10.5435 6.69137 9.56943 6.9009C9.47316 6.92355 9.47883 7.04813 9.5751 7.06512C11.5571 7.39924 12.1914 8.95654 12.4009 9.93057C12.4236 10.0268 12.5481 10.0212 12.5651 9.9249C12.8992 7.94288 14.4565 7.30863 15.4306 7.0991C15.5268 7.07645 15.5212 6.95187 15.4249 6.93488Z" fill="url(#paint0_linear_1813_91799)"/>
<defs>
<linearGradient id="paint0_linear_1813_91799" x1="0.582639" y1="-2.33587" x2="22.843" y2="18.5962" gradientUnits="userSpaceOnUse">
<stop stop-color="#03A1FD"/>
<stop offset="1" stop-color="#103BD2"/>
</linearGradient>
</defs>
</svg>
